<svg xmlns="http://www.w3.org/2000/svg" width="520" height="170" viewBox="0 0 520 170"><g fill="none" stroke="#8FB0DA" stroke-width="1.4"><path d="M0 150 Q65 128 130 150 T260 150 T390 150 T520 150" opacity=".75"/><path d="M0 120 Q65 100 130 120 T260 120 T390 120 T520 120" opacity=".55"/><path d="M-65 90 Q0 72 65 90 T195 90 T325 90 T455 90 T585 90" opacity=".4"/><path d="M0 60 Q65 46 130 60 T260 60 T390 60 T520 60" opacity=".26"/><path d="M-65 30 Q0 18 65 30 T195 30 T325 30 T455 30 T585 30" opacity=".14"/></g></svg>
